<svg aria-hidden="true" style="width:0;height:0;position:absolute;overflow:hidden" xmlns="http://www.w3.org/2000/svg"><defs><symbol id="cros" viewBox="0 0 32 32"><path d="M23.884 6.706 16 14.59 8.116 6.706a.996.996 0 0 0-1.672.736c0 .26.099.497.262.674l-.001-.001 7.88 7.884-7.882 7.882a.998.998 0 0 0 1.41 1.412l7.886-7.882 7.884 7.884a.996.996 0 0 0 1.672-.736.992.992 0 0 0-.262-.674l.001.001-7.884-7.884 7.884-7.886a.998.998 0 0 0-1.41-1.412v.002z"/></symbol><symbol id="mobile" viewBox="0 0 32 32"><path d="M29.43 20.473h-.034a18.56 18.56 0 0 1-5.804-.924l.131.037c-.894-.295-1.991-.025-2.535.522l-3.599 2.649c-4.172-2.171-6.742-4.677-8.938-8.714l2.634-3.414a2.48 2.48 0 0 0 .638-2.555c-.577-1.654-.911-3.56-.911-5.544v-.028.001C11.01 1.125 9.855 0 8.442 0H2.566C1.151 0-.001 1.122-.001 2.503c0 15.818 13.201 28.689 29.43 28.689 1.415 0 2.567-1.125 2.567-2.503v-5.711c0-1.381-1.152-2.506-2.567-2.506z"/></symbol><symbol id="menu" viewBox="0 0 32 32"><path d="M1.067 7.467h29.867a1.067 1.067 0 0 1 0 2.134H1.067a1.067 1.067 0 0 1 0-2.134zM1.067 14.933h29.867a1.067 1.067 0 0 1 0 2.134H1.067a1.067 1.067 0 0 1 0-2.134zM1.067 22.4h29.867a1.067 1.067 0 0 1 0 2.134H1.067a1.067 1.067 0 0 1 0-2.134z"/></symbol><symbol id="star" viewBox="0 0 32 32"><path fill="#edd501" style="fill:var(--color1,#edd501)" d="M14.478 2.283c.48-1.474 2.565-1.474 3.043 0l2.43 7.478a1.603 1.603 0 0 0 1.52 1.104h7.864c1.55 0 2.194 1.984.941 2.896l-6.362 4.621a1.6 1.6 0 0 0-.577 1.8l-.003-.011 2.429 7.478c.48 1.475-1.208 2.701-2.462 1.789l-6.36-4.621c-.26-.191-.587-.306-.941-.306s-.68.115-.945.309l.004-.003-6.362 4.621c-1.253.912-2.941-.315-2.461-1.789l2.429-7.478a1.598 1.598 0 0 0-.577-1.786l-.004-.003-6.362-4.621c-1.253-.912-.608-2.896.941-2.896h7.862c.706 0 1.306-.458 1.518-1.093l.003-.011 2.432-7.478z"/></symbol><symbol id="star_2" viewBox="0 0 34 32"><path fill="none" stroke="#edd501" style="stroke:var(--color1,#edd501)" stroke-width="1.684" d="M15.901 3.05a.844.844 0 0 1 1.6-.006l.002.006 2.509 7.725a2.532 2.532 0 0 0 2.403 1.747h8.125a.842.842 0 0 1 .497 1.521l-.002.002-6.572 4.776a2.527 2.527 0 0 0-.912 2.842l-.005-.018 2.509 7.725a.842.842 0 0 1-1.3.94l.002.002-6.572-4.775c-.411-.301-.927-.482-1.485-.482s-1.074.181-1.492.487l.007-.005-6.572 4.775a.842.842 0 0 1-1.295-.947l-.002.006 2.509-7.725a2.524 2.524 0 0 0-.909-2.82l-.007-.005-6.572-4.776a.841.841 0 0 1 .495-1.522h8.123a2.527 2.527 0 0 0 2.398-1.729l.005-.018 2.509-7.725z"/></symbol><symbol id="twitter" viewBox="0 0 32 32"><path d="M32 4.44c-1.097.551-2.37.957-3.712 1.152l-.068.008c1.36-.908 2.398-2.336 2.886-4.054a12.155 12.155 0 0 1-4.077 1.758l-.083.016C25.742 1.888 24.026 1 22.154 1c-3.632 0-6.556 3.296-6.556 7.336 0 .58.044 1.14.152 1.672-5.454-.298-10.28-3.22-13.522-7.672a7.953 7.953 0 0 0-.898 3.697v.011-.001c0 2.54 1.17 4.79 2.914 6.094a5.942 5.942 0 0 1-2.988-.918l.024.014v.08c0 3.566 2.274 6.526 5.256 7.208a5.94 5.94 0 0 1-1.72.24c-.42 0-.844-.026-1.242-.124.85 2.904 3.262 5.04 6.13 5.108-2.232 1.952-5.066 3.128-8.134 3.128-.538 0-1.054-.028-1.57-.1 2.906 2.094 6.35 3.29 10.064 3.29 12.072 0 18.672-11.18 18.672-20.868 0-.324-.01-.638-.024-.948a14.157 14.157 0 0 0 3.253-3.744L32 4.439z"/></symbol><symbol id="facebook" viewBox="0 0 32 32"><path d="M22.512.006 18.896 0c-4.064 0-6.69 3.092-6.69 7.876v3.63H8.568c-.314 0-.568.294-.568.654v5.26c0 .36.254.652.568.652h3.638v13.276c0 .36.254.652.568.652h4.746c.314 0 .568-.292.568-.652V18.072h4.252c.314 0 .568-.292.568-.652l.002-5.26c0-.174-.06-.34-.166-.462a.535.535 0 0 0-.402-.192h-4.254V8.428c0-1.48.308-2.23 1.988-2.23h2.436c.314 0 .568-.294.568-.654V.66c0-.36-.254-.652-.568-.654z"/></symbol><symbol id="azimut" viewBox="0 0 32 32"><path d="M16 0c6.47 0 11.733 5.131 11.733 11.439a11.17 11.17 0 0 1-2.34 6.857l-8.67 11.379c-.021.028-.055.038-.079.064a.886.886 0 0 1-1.364-.062l-.002-.002c-2.5-3.243-7.076-9.31-8.834-11.597l-.002-.002-.011-.015a11.077 11.077 0 0 1-2.165-6.607v-.016.001C4.266 5.131 9.529 0 15.999 0zm0 17.609c3.484 0 6.33-2.773 6.33-6.17S19.484 5.267 16 5.267 9.67 8.04 9.67 11.439c0 3.394 2.846 6.17 6.33 6.17z"/></symbol><symbol id="instagram" viewBox="0 0 32 32"><path d="M16.316 32h-.32l-.461.001c-2.329 0-4.64-.072-6.933-.212l.314.015c-2.066-.126-3.952-.84-5.454-2.064-1.45-1.182-2.44-2.78-2.942-4.75-.44-1.716-.46-3.4-.484-5.026C.02 18.794.004 17.41 0 16.004c.004-1.414.02-2.8.036-3.968.022-1.628.046-3.31.484-5.026.5-1.97 1.492-3.568 2.94-4.75C4.966 1.036 6.852.32 8.92.196c2.252-.138 4.57-.2 7.084-.196l.443-.001c2.335 0 4.653.071 6.952.212l-.316-.015c2.066.124 3.952.84 5.454 2.064 1.45 1.182 2.44 2.78 2.944 4.75.436 1.716.46 3.4.48 5.026.018 1.17.034 2.554.038 3.96v.006c-.004 1.408-.02 2.792-.036 3.96-.022 1.63-.046 3.312-.482 5.028-.504 1.97-1.494 3.568-2.944 4.75-1.502 1.224-3.388 1.94-5.454 2.064-1.968.125-4.268.196-6.585.196h-.193.01zm-.32-2.5.48.001c2.271 0 4.526-.069 6.763-.206l-.307.015c1.56-.096 2.916-.602 4.026-1.508 1.026-.836 1.734-1.99 2.1-3.43.364-1.428.386-2.96.406-4.444.016-1.16.032-2.534.036-3.928-.004-1.394-.02-2.768-.036-3.93-.02-1.48-.04-3.014-.406-4.44-.368-1.44-1.074-2.596-2.1-3.432-1.11-.906-2.464-1.412-4.026-1.508-1.93-.122-4.186-.191-6.457-.191l-.5.001h.026l-.485-.001c-2.269 0-4.522.069-6.756.206l.307-.015c-1.56.096-2.916.602-4.026 1.508-1.026.836-1.734 1.99-2.1 3.43-.364 1.428-.386 2.96-.406 4.442a364.21 364.21 0 0 0-.036 3.932c.004 1.39.02 2.766.036 3.926.02 1.484.04 3.016.406 4.444.366 1.44 1.074 2.594 2.1 3.43 1.11.906 2.464 1.412 4.026 1.508 2.2.134 4.468.196 6.928.19zm-.06-5.688A7.82 7.82 0 0 1 8.126 16a7.82 7.82 0 0 1 7.814-7.812A7.82 7.82 0 0 1 23.75 16a7.82 7.82 0 0 1-7.812 7.812zm0-13.124A5.32 5.32 0 0 0 10.626 16a5.32 5.32 0 0 0 5.314 5.312A5.32 5.32 0 0 0 21.25 16a5.32 5.32 0 0 0-5.312-5.312zm8.69-5-.061-.001a1.876 1.876 0 0 0 0 3.752l.064-.001h-.003a1.877 1.877 0 0 0 .003-3.75h-.003z"/></symbol></defs></svg>