<svg aria-hidden="true" style="position: absolute; width: 0; height: 0; overflow: hidden;" version="1.1" xmlns="http://www.w3.org/2000/svg" xmlns:xlink="http://www.w3.org/1999/xlink">
<defs>
<symbol id="cros" viewBox="0 0 32 32">
<path d="M23.884 6.706l-7.884 7.884-7.884-7.884c-0.177-0.162-0.414-0.262-0.674-0.262-0.551 0-0.998 0.447-0.998 0.998 0 0.26 0.099 0.497 0.262 0.674l-0.001-0.001 7.88 7.884-7.882 7.882c-0.181 0.181-0.293 0.43-0.293 0.706 0 0.551 0.447 0.998 0.998 0.998 0.275 0 0.524-0.111 0.705-0.292v0l7.886-7.882 7.884 7.884c0.177 0.162 0.414 0.262 0.674 0.262 0.551 0 0.998-0.447 0.998-0.998 0-0.26-0.099-0.497-0.262-0.674l0.001 0.001-7.884-7.884 7.884-7.886c0.181-0.181 0.293-0.43 0.293-0.706 0-0.551-0.447-0.998-0.998-0.998-0.275 0-0.524 0.111-0.705 0.292v0 0.002z"></path>
</symbol>
<symbol id="mobile" viewBox="0 0 32 32">
<path d="M29.43 20.473c-0.010 0-0.022 0-0.034 0-2.027 0-3.978-0.324-5.804-0.924l0.131 0.037c-0.894-0.295-1.991-0.025-2.535 0.522l-3.599 2.649c-4.172-2.171-6.742-4.677-8.938-8.714l2.634-3.414c0.687-0.667 0.93-1.642 0.638-2.555-0.577-1.654-0.911-3.56-0.911-5.544 0-0.009 0-0.019 0-0.028v0.001c-0.002-1.378-1.157-2.503-2.57-2.503h-5.876c-1.415 0-2.567 1.122-2.567 2.503 0 15.818 13.201 28.689 29.43 28.689 1.415 0 2.567-1.125 2.567-2.503v-5.711c0-1.381-1.152-2.506-2.567-2.506z"></path>
</symbol>
<symbol id="menu" viewBox="0 0 32 32">
<path d="M1.067 7.467h29.867c0.589 0 1.067 0.478 1.067 1.067s-0.478 1.067-1.067 1.067h-29.867c-0.589 0-1.067-0.478-1.067-1.067s0.478-1.067 1.067-1.067z"></path>
<path d="M1.067 14.933h29.867c0.589 0 1.067 0.478 1.067 1.067s-0.478 1.067-1.067 1.067h-29.867c-0.589 0-1.067-0.478-1.067-1.067s0.478-1.067 1.067-1.067z"></path>
<path d="M1.067 22.4h29.867c0.589 0 1.067 0.478 1.067 1.067s-0.478 1.067-1.067 1.067h-29.867c-0.589 0-1.067-0.478-1.067-1.067s0.478-1.067 1.067-1.067z"></path>
</symbol>
<symbol id="star" viewBox="0 0 32 32">
<path fill="#edd501" style="fill: var(--color1, #edd501)" d="M14.478 2.283c0.48-1.474 2.565-1.474 3.043 0l2.43 7.478c0.215 0.646 0.814 1.103 1.52 1.104h7.864c1.55 0 2.194 1.984 0.941 2.896l-6.362 4.621c-0.401 0.294-0.659 0.764-0.659 1.294 0 0.177 0.029 0.347 0.082 0.506l-0.003-0.011 2.429 7.478c0.48 1.475-1.208 2.701-2.462 1.789l-6.36-4.621c-0.26-0.191-0.587-0.306-0.941-0.306s-0.68 0.115-0.945 0.309l0.004-0.003-6.362 4.621c-1.253 0.912-2.941-0.315-2.461-1.789l2.429-7.478c0.050-0.148 0.078-0.318 0.078-0.495 0-0.53-0.258-1-0.655-1.291l-0.004-0.003-6.362-4.621c-1.253-0.912-0.608-2.896 0.941-2.896h7.862c0 0 0 0 0 0 0.706 0 1.306-0.458 1.518-1.093l0.003-0.011 2.432-7.478z"></path>
</symbol>
<symbol id="star_2" viewBox="0 0 34 32">
<path fill="none" stroke="#edd501" style="stroke: var(--color1, #edd501)" stroke-linejoin="miter" stroke-linecap="butt" stroke-miterlimit="4" stroke-width="1.6842" d="M15.901 3.050c0.113-0.341 0.429-0.582 0.801-0.582s0.688 0.241 0.799 0.576l0.002 0.006 2.509 7.725c0.339 1.022 1.286 1.747 2.403 1.747 0 0 0 0 0 0h8.125c0.465 0.001 0.841 0.377 0.841 0.842 0 0.279-0.135 0.525-0.344 0.679l-0.002 0.002-6.572 4.776c-0.634 0.465-1.041 1.207-1.041 2.044 0 0.279 0.045 0.547 0.129 0.798l-0.005-0.018 2.509 7.725c0.026 0.078 0.041 0.168 0.041 0.261 0 0.465-0.377 0.842-0.842 0.842-0.187 0-0.359-0.061-0.499-0.163l0.002 0.002-6.572-4.775c-0.411-0.301-0.927-0.482-1.485-0.482s-1.074 0.181-1.492 0.487l0.007-0.005-6.572 4.775c-0.137 0.101-0.31 0.162-0.496 0.162-0.465 0-0.842-0.377-0.842-0.842 0-0.093 0.015-0.183 0.043-0.267l-0.002 0.006 2.509-7.725c0.079-0.233 0.124-0.502 0.124-0.782 0-0.837-0.407-1.578-1.033-2.038l-0.007-0.005-6.572-4.776c-0.211-0.155-0.346-0.402-0.346-0.68 0-0.465 0.376-0.842 0.841-0.842h8.123c0 0 0 0 0 0 1.117 0 2.064-0.724 2.398-1.729l0.005-0.018 2.509-7.725z"></path>
</symbol>
<symbol id="twitter" viewBox="0 0 32 32">
<path d="M32 4.44c-1.097 0.551-2.37 0.957-3.712 1.152l-0.068 0.008c1.36-0.908 2.398-2.336 2.886-4.054-1.19 0.803-2.582 1.417-4.077 1.758l-0.083 0.016c-1.204-1.432-2.92-2.32-4.792-2.32-3.632 0-6.556 3.296-6.556 7.336 0 0.58 0.044 1.14 0.152 1.672-5.454-0.298-10.28-3.22-13.522-7.672-0.566 1.074-0.898 2.347-0.898 3.697 0 0.004 0 0.008 0 0.011v-0.001c0 2.54 1.17 4.79 2.914 6.094-1.103-0.038-2.121-0.369-2.988-0.918l0.024 0.014v0.080c0 3.566 2.274 6.526 5.256 7.208-0.534 0.162-1.116 0.24-1.72 0.24-0.42 0-0.844-0.026-1.242-0.124 0.85 2.904 3.262 5.040 6.13 5.108-2.232 1.952-5.066 3.128-8.134 3.128-0.538 0-1.054-0.028-1.57-0.1 2.906 2.094 6.35 3.29 10.064 3.29 12.072 0 18.672-11.18 18.672-20.868 0-0.324-0.010-0.638-0.024-0.948 1.308-1.060 2.402-2.32 3.253-3.744l0.035-0.064z"></path>
</symbol>
<symbol id="facebook" viewBox="0 0 32 32">
<path d="M22.512 0.006l-3.616-0.006c-4.064 0-6.69 3.092-6.69 7.876v3.63h-3.638c-0.314 0-0.568 0.294-0.568 0.654v5.26c0 0.36 0.254 0.652 0.568 0.652h3.638v13.276c0 0.36 0.254 0.652 0.568 0.652h4.746c0.314 0 0.568-0.292 0.568-0.652v-13.276h4.252c0.314 0 0.568-0.292 0.568-0.652l0.002-5.26c0-0.174-0.060-0.34-0.166-0.462-0.097-0.116-0.241-0.189-0.402-0.192h-4.254v-3.078c0-1.48 0.308-2.23 1.988-2.23h2.436c0.314 0 0.568-0.294 0.568-0.654v-4.884c0-0.36-0.254-0.652-0.568-0.654z"></path>
</symbol>
<symbol id="azimut" viewBox="0 0 32 32">
<path d="M16 0c6.47 0 11.733 5.131 11.733 11.439 0 2.496-0.811 4.866-2.34 6.857l-8.67 11.379c-0.021 0.028-0.055 0.038-0.079 0.064-0.163 0.178-0.396 0.29-0.656 0.29-0.289 0-0.546-0.138-0.708-0.352l-0.002-0.002c-2.5-3.243-7.076-9.31-8.834-11.597l-0.002-0.002-0.011-0.015c-1.353-1.825-2.165-4.121-2.165-6.607 0-0.005 0-0.011 0-0.016v0.001c0-6.308 5.263-11.439 11.733-11.439zM16 17.609c3.484 0 6.33-2.773 6.33-6.17s-2.846-6.172-6.33-6.172-6.33 2.773-6.33 6.172c0 3.394 2.846 6.17 6.33 6.17z"></path>
</symbol>
<symbol id="instagram" viewBox="0 0 32 32">
<path d="M16.316 32h-0.32c-0.137 0.001-0.299 0.001-0.461 0.001-2.329 0-4.64-0.072-6.933-0.212l0.314 0.015c-2.066-0.126-3.952-0.84-5.454-2.064-1.45-1.182-2.44-2.78-2.942-4.75-0.44-1.716-0.46-3.4-0.484-5.026-0.016-1.17-0.032-2.554-0.036-3.96 0.004-1.414 0.020-2.8 0.036-3.968 0.022-1.628 0.046-3.31 0.484-5.026 0.5-1.97 1.492-3.568 2.94-4.75 1.506-1.224 3.392-1.94 5.46-2.064 2.252-0.138 4.57-0.2 7.084-0.196 0.132-0.001 0.288-0.001 0.443-0.001 2.335 0 4.653 0.071 6.952 0.212l-0.316-0.015c2.066 0.124 3.952 0.84 5.454 2.064 1.45 1.182 2.44 2.78 2.944 4.75 0.436 1.716 0.46 3.4 0.48 5.026 0.018 1.17 0.034 2.554 0.038 3.96v0.006c-0.004 1.408-0.020 2.792-0.036 3.96-0.022 1.63-0.046 3.312-0.482 5.028-0.504 1.97-1.494 3.568-2.944 4.75-1.502 1.224-3.388 1.94-5.454 2.064-1.968 0.125-4.268 0.196-6.585 0.196-0.064 0-0.129-0-0.193-0h0.010zM15.996 29.5c0.143 0.001 0.312 0.001 0.48 0.001 2.271 0 4.526-0.069 6.763-0.206l-0.307 0.015c1.56-0.096 2.916-0.602 4.026-1.508 1.026-0.836 1.734-1.99 2.1-3.43 0.364-1.428 0.386-2.96 0.406-4.444 0.016-1.16 0.032-2.534 0.036-3.928-0.004-1.394-0.020-2.768-0.036-3.93-0.020-1.48-0.040-3.014-0.406-4.44-0.368-1.44-1.074-2.596-2.1-3.432-1.11-0.906-2.464-1.412-4.026-1.508-1.93-0.122-4.186-0.191-6.457-0.191-0.167 0-0.333 0-0.5 0.001l0.026-0c-0.144-0.001-0.314-0.001-0.485-0.001-2.269 0-4.522 0.069-6.756 0.206l0.307-0.015c-1.56 0.096-2.916 0.602-4.026 1.508-1.026 0.836-1.734 1.99-2.1 3.43-0.364 1.428-0.386 2.96-0.406 4.442-0.016 1.162-0.032 2.538-0.036 3.932 0.004 1.39 0.020 2.766 0.036 3.926 0.020 1.484 0.040 3.016 0.406 4.444 0.366 1.44 1.074 2.594 2.1 3.43 1.11 0.906 2.464 1.412 4.026 1.508 2.2 0.134 4.468 0.196 6.928 0.19zM15.936 23.812c-4.312-0.006-7.805-3.5-7.81-7.812v-0c0.005-4.313 3.501-7.809 7.814-7.812h0c4.312 0.006 7.805 3.5 7.81 7.812v0c-0.005 4.313-3.499 7.807-7.812 7.812h-0zM15.936 10.688c-2.931 0.006-5.305 2.381-5.31 5.312v0c0.005 2.933 2.381 5.309 5.314 5.312h0c2.931-0.006 5.305-2.381 5.31-5.312v-0c-0.005-2.932-2.38-5.307-5.312-5.312h-0zM24.626 5.688c-0.018-0.001-0.040-0.001-0.061-0.001-1.036 0-1.876 0.84-1.876 1.876s0.84 1.876 1.876 1.876c0.022 0 0.043-0 0.064-0.001l-0.003 0c1.009-0.034 1.815-0.86 1.815-1.875s-0.805-1.841-1.812-1.875l-0.003-0z"></path>
</symbol>
</defs>
</svg>
